<svg width="160" height="160" viewBox="0 0 160 160" fill="none" xmlns="http://www.w3.org/2000/svg">
  <defs>
    <linearGradient id="outerFill" x1="26" y1="18" x2="132" y2="144" gradientUnits="userSpaceOnUse">
      <stop stop-color="#191612"/>
      <stop offset="1" stop-color="#090806"/>
    </linearGradient>
    <linearGradient id="innerStroke" x1="46" y1="32" x2="114" y2="130" gradientUnits="userSpaceOnUse">
      <stop stop-color="#F4DEC0"/>
      <stop offset="1" stop-color="#B68451"/>
    </linearGradient>
    <radialGradient id="innerGlow" cx="0" cy="0" r="1" gradientUnits="userSpaceOnUse" gradientTransform="translate(80 54) rotate(90) scale(74)">
      <stop stop-color="#1B1712"/>
      <stop offset="1" stop-color="#0C0B09"/>
    </radialGradient>
  </defs>
  <circle cx="80" cy="80" r="66" fill="url(#outerFill)" stroke="#D9AF79" stroke-width="2.4"/>
  <circle cx="80" cy="80" r="53" fill="url(#innerGlow)" stroke="url(#innerStroke)" stroke-width="1.8"/>
  <path d="M80 26L84.5 33L80 40L75.5 33L80 26Z" fill="#EFD8B8"/>
  <path d="M80 120L83.6 126L80 132L76.4 126L80 120Z" fill="#D9AF79" fill-opacity="0.8"/>
  <path d="M126 80L120 83.6L114 80L120 76.4L126 80Z" fill="#D9AF79" fill-opacity="0.65"/>
  <path d="M46 80L40 83.6L34 80L40 76.4L46 80Z" fill="#D9AF79" fill-opacity="0.65"/>
  <path d="M80 44L105 108" stroke="#F4DEC0" stroke-width="4.2" stroke-linecap="round" stroke-linejoin="round"/>
  <path d="M80 44L55 108" stroke="#F4DEC0" stroke-width="4.2" stroke-linecap="round" stroke-linejoin="round"/>
  <path d="M64 84H96" stroke="#D9AF79" stroke-width="3.2" stroke-linecap="round"/>
  <path d="M80 44V108" stroke="#E6C79E" stroke-width="1.7" stroke-linecap="round" opacity="0.5"/>
  <circle cx="80" cy="80" r="3.6" fill="#F4DEC0"/>
</svg>
